<?xml version="1.0" encoding="UTF-8"?>
<!DOCTYPE svg PUBLIC "-//W3C//DTD SVG 1.1//EN" "http://www.w3.org/Graphics/SVG/1.1/DTD/svg11.dtd">
<svg xmlns="http://www.w3.org/2000/svg" xmlns:xlink="http://www.w3.org/1999/xlink" version="1.1" width="748px" height="301px" viewBox="-0.5 -0.5 748 301"><defs/><g><rect x="140" y="30" width="160" height="50" fill="#d5e8d4" stroke="#82b366" pointer-events="all"/><g fill="#000000" font-family="Verdana" font-weight="bold" text-anchor="middle" font-size="12px"><text x="219.5" y="59.5">Debugger</text></g><rect x="500" y="30" width="160" height="50" fill="#ffe6cc" stroke="#d79b00" pointer-events="all"/><g fill="#000000" font-family="Verdana" font-weight="bold" text-anchor="middle" font-size="12px"><text x="579.5" y="59.5">Debuggee</text></g><rect x="20" y="230" width="160" height="50" fill="#dae8fc" stroke="#6c8ebf" pointer-events="all"/><g fill="#000000" font-family="Verdana" font-weight="bold" text-anchor="middle" font-size="12px"><text x="99.5" y="259.5">Debugger Client 1</text></g><path d="M 220 80 L 220 155" fill="none" stroke="#000000" stroke-miterlimit="10" pointer-events="stroke"/><g fill="#000000" font-family="Verdana" font-weight="bold" text-anchor="middle" font-size="11px"><text x="269.5" y="119">Debugger API</text></g><ellipse cx="220" cy="155" rx="5" ry="5" fill="#ffffff" stroke="#000000" pointer-events="all"/><path d="M 306.37 55 L 493.63 55" fill="none" stroke="#000000" stroke-miterlimit="10" pointer-events="stroke"/><path d="M 301.12 55 L 308.12 51.5 L 306.37 55 L 308.12 58.5 Z" fill="#000000" stroke="#000000" stroke-miterlimit="10" pointer-events="all"/><path d="M 498.88 55 L 491.88 58.5 L 493.63 55 L 491.88 51.5 Z" fill="#000000" stroke="#000000" stroke-miterlimit="10" pointer-events="all"/><g fill="#000000" font-family="Verdana" font-weight="bold" text-anchor="middle" font-size="11px"><text x="395.5" y="30.5">Debugging Session </text><text x="395.5" y="43.5">Commands &amp; Events</text></g><path d="M 580 80 L 580 150" fill="none" stroke="#000000" stroke-miterlimit="10" pointer-events="stroke"/><g fill="#000000" font-family="Verdana" font-weight="bold" text-anchor="middle" font-size="11px"><text x="575" y="179.5">Ports or IPC channels exposed by the application</text></g><ellipse cx="580" cy="155" rx="5" ry="5" fill="#ffffff" stroke="#000000" pointer-events="all"/><rect x="260" y="230" width="160" height="50" fill="#dae8fc" stroke="#6c8ebf" pointer-events="all"/><g fill="#000000" font-family="Verdana" font-weight="bold" text-anchor="middle" font-size="12px"><text x="339.5" y="259.5">Debugger Client N</text></g><path d="M 228.73 162.28 L 305.11 225.92" fill="none" stroke="#000000" stroke-miterlimit="10" pointer-events="stroke"/><path d="M 224.7 158.92 L 232.32 160.71 L 228.73 162.28 L 227.84 166.09 Z" fill="#000000" stroke="#000000" stroke-miterlimit="10" pointer-events="all"/><path d="M 309.14 229.28 L 301.52 227.49 L 305.11 225.92 L 306 222.11 Z" fill="#000000" stroke="#000000" stroke-miterlimit="10" pointer-events="all"/><path d="M 211.27 162.28 L 134.89 225.92" fill="none" stroke="#000000" stroke-miterlimit="10" pointer-events="stroke"/><path d="M 215.3 158.92 L 212.16 166.09 L 211.27 162.28 L 207.68 160.71 Z" fill="#000000" stroke="#000000" stroke-miterlimit="10" pointer-events="all"/><path d="M 130.86 229.28 L 134 222.11 L 134.89 225.92 L 138.48 227.49 Z" fill="#000000" stroke="#000000" stroke-miterlimit="10" pointer-events="all"/></g></svg>